# xmcd
#
# Track frame offsets: 
#        150
#        7123
#        17576
#        27692
#        36828
#        43305
#        53643
#        60903
#
# Disc length: 937 seconds
#
# Revision: 0
# Processed by: cddbd v1.5.2PL0 Copyright (c) Steve Scherf et al.
# Submitted via: ExactAudioCopy v0.95b3
#
DISCID=6303a708
DTITLE=Who The Hell Es Rogelio Gutierrez? - Eat A Chip
DYEAR=2009
DGENRE=Crossover
TTITLE0=01 - Come Here, Kitty Card!
TTITLE1=02 - Don't Shit Me Unless You Eat Me
TTITLE2=03 - I've Got Better Things To Not Do Poorly (You Gotta Pay To
TTITLE2=Live Free)
TTITLE3=04 - Intermission by Scissor Sisters, Um...the Carpenters, and
TTITLE3=the Offspring
TTITLE4=05 - Crazy On You by Heart
TTITLE5=06 - Crazy Water by Elton John
TTITLE6=07 - Crazy by Willie Nelson as performed by Patsy Cline
TTITLE7=08 - Crazy Train by Ozzy Osbourne
EXTD=1. Come Here, Kitty Card!\n\n      "Kitties"\n   \n    J. LaBoda 
EXTD=Acoustic Guitar, Vocals, Whistler\n    A. Pruett - Trombone, Tr
EXTD=umpet\n    S. Smith  - Drums\n    J. Tobias - Bass\n\n2. Don't Sh
EXTD=it Me Unless You Eat Me\n\n      "River"\n   \n    J. LaBoda - Ac
EXTD=oustic Guitar, Vocals\n    A. Pruett - Trombone, Trumpet\n    S. 
EXTD=Smith  - Drum Things, Drunken Hobo Drums\n    J. Tobias - Bass\n 
EXTD=\n3. I've Got Better Things To Not Do Poorly (You Gotta Pay To Li
EXTD=ve Free]\n\n      "George Bush"\n   \n    L. Fields - Vocals, Ban
EXTD=jo, Shredderbringer\n    A. Gentry - Vocals, Body Beats\n    M. K
EXTD=urz   - Testifyification (vocal]\n    J. LaBoda - Electric Guitar
EXTD=?, Vocals, Body Beats\n    A. Pruett - Trombone, Trumpet\n    S. 
EXTD=Smith  - Drums and More Drums\n    J. Tobias - Bass, Crazy Floyd 
EXTD=(vocal]\n\n4. Intermission by Scissor Sisters, Um...the Carpenter
EXTD=s, and the Offspring\n\n      "Untitled"\n   \n    J. LaBoda - Ac
EXTD=oustic Guitar, Tambourine, Stone Block Kicking, Speech\n\n5. Craz
EXTD=y On You by Heart\n\n      "Iowa City"\n   \n    J. LaBoda - Acou
EXTD=stic Guitar, Vocals\n    S. Smith  - Drums\n    J. Tobias - Bass\n
EXTD=\n6. Crazy Water by Elton John\n\n    "Old Man's Lake"\n\n    L. 
EXTD=Fields - Banjo\n    J. LaBoda - Acoustic Guitar, Vocals\n    A. P
EXTD=ruett - Trombone, Trumpet\n    J. Tobias - Bass, Coffee Cup Slide
EXTD=\n    J. Tucci  - Thumb Piano\n\n7. Crazy by Willie Nelson as per
EXTD=formed by Patsy Cline\n\n      "Stars"\n\n    L. Fields - Carabin
EXTD=er Slide, Banjotone\n    A. Gentry - Accordions\n    J. LaBoda - 
EXTD=Erectric Guitar?, Vocals\n    S. Smith  - Those Drums\n    J. Tob
EXTD=ias - Bass\n\n8. Crazy Train by Ozzy Osbourne\n\n    "Crazy Train
EXTD=s"\n   \n    L. Fields - Banjotone\n    J. LaBoda - Erectlic Guit
EXTD=al, Vocals\n    S. Smith  - Some Damn Good Drums\n    J. Tobias -
EXTD=Bass, Train Whistle Whastle\n    J. Tucci  - Thumb Piano\n
EXTT0=
EXTT1=
EXTT2=
EXTT3=
EXTT4=
EXTT5=
EXTT6=
EXTT7=
PLAYORDER=
